<svg xmlns="http://www.w3.org/2000/svg" width="743" height="231" fill="none" viewBox="0 0 743 231"><path fill="#f7f7f7" d="M305.729 181q-1.629 0-2.934-1.141-1.14-1.304-1.141-2.934V92.491H272.64q-1.629 0-2.934-1.141-1.14-1.304-1.141-2.934V70.975q0-1.792 1.141-2.934 1.305-1.14 2.934-1.141h87.694q1.794 0 2.934 1.141 1.141 1.14 1.141 2.934v17.441q0 1.792-1.141 2.934-1.14 1.14-2.934 1.141H331.32v84.434q0 1.63-1.141 2.934-1.14 1.141-2.934 1.141zm55.354 0q-1.304 0-2.445-.978-.978-1.142-.978-2.445 0-.978.163-1.467l38.305-104.646q.49-1.956 2.119-3.26 1.63-1.305 4.238-1.304h24.124q2.609 0 4.238 1.304t2.119 3.26l38.142 104.646.326 1.467q0 1.303-1.141 2.445-.978.978-2.445.978h-20.049q-3.912 0-5.216-3.423l-6.357-16.626h-43.521l-6.194 16.626Q385.207 181 381.132 181zm68.623-43.521-15.159-43.032-15.159 43.032zm99.951 45.151q-22.983 0-36.023-11.247-12.877-11.247-12.877-33.904V70.975q0-1.792 1.141-2.934 1.303-1.14 2.934-1.141h21.027q1.792 0 2.934 1.141 1.304 1.14 1.304 2.934v66.341q0 10.595 4.89 15.974 5.053 5.216 14.507 5.216 9.29 0 14.344-5.379 5.053-5.379 5.053-15.811V70.975q0-1.792 1.141-2.934 1.304-1.14 2.934-1.141h21.19q1.793 0 2.934 1.141 1.141 1.14 1.141 2.934v66.504q0 22.657-13.04 33.904-12.877 11.247-35.534 11.247m74.264-1.63q-1.629 0-2.934-1.141-1.14-1.304-1.141-2.934V70.975q0-1.792 1.141-2.934 1.305-1.14 2.934-1.141h44.336q21.354 0 33.252 9.78 12.063 9.617 12.062 27.384 0 11.41-5.379 19.397t-14.833 12.225l22.331 40.098q.489.978.489 1.793 0 1.303-1.141 2.445-.978.978-2.282.978h-21.679q-4.727 0-6.683-4.401l-18.582-35.86h-16.626v36.186q0 1.793-1.304 2.934-1.14 1.141-2.934 1.141zm44.01-63.407q7.498 0 11.41-3.586 3.912-3.749 3.912-10.269t-3.912-10.269q-3.748-3.912-11.41-3.912h-18.745v28.036zM716.621 181q-1.63 0-2.934-1.141-1.141-1.304-1.141-2.934V70.975q0-1.792 1.141-2.934 1.303-1.14 2.934-1.141h21.842q1.793 0 2.934 1.141 1.304 1.14 1.304 2.934v105.95q0 1.793-1.304 2.934-1.141 1.141-2.934 1.141z"/><path fill="#ffc131" d="M143.143 84c0 12.15-9.85 22-22 22s-22-9.85-22-22 9.849-22 22-22 22 9.85 22 22"/><circle cx="84.143" cy="147" r="22" fill="#24c8db" transform="rotate(180 84.143 147)"/><path fill="#ffc131" fill-rule="evenodd" d="M166.738 154.548a84 84 0 0 1-28.981 11.793A59 59 0 0 0 141 147c0-2.457-.15-4.879-.442-7.257a59.035 59.035 0 0 0 38.944-64.594 59.02 59.02 0 0 0-42.46-47.994 59.03 59.03 0 0 0-63.866 22.444 98 98 0 0 0-32.213 9.357 84 84 0 1 1 125.775 95.592M41.963 74.275l20.593 2.53a59 59 0 0 1 2.658-11.678 84 84 0 0 0-23.25 9.148" clip-rule="evenodd"/><path fill="#24c8db" fill-rule="evenodd" d="M38.405 76.452a84 84 0 0 1 29.212-11.839A58.9 58.9 0 0 0 64 85q.001 3.216.337 6.344a59.02 59.02 0 0 0-34.155 31.412 59.03 59.03 0 0 0 9.609 63.356 59.027 59.027 0 0 0 92.188-4.729 98 98 0 0 0 32.226-9.421 83.99 83.99 0 0 1-55.298 55.26A83.995 83.995 0 0 1 .95 159.596a84 84 0 0 1 37.454-83.144m124.657 80.259-.324.186z" clip-rule="evenodd"/></svg>