<svg xmlns="http://www.w3.org/2000/svg" width="206" height="231" fill="none"><path fill="#ffc131" d="M143.143 84c0 12.15-9.85 22-22 22s-22-9.85-22-22 9.849-22 22-22 22 9.85 22 22"/><circle cx="84.143" cy="147" r="22" fill="#24c8db" transform="rotate(180 84.143 147)"/><path fill="#ffc131" fill-rule="evenodd" d="M166.738 154.548a84 84 0 0 1-28.981 11.793A59 59 0 0 0 141 147c0-2.457-.15-4.879-.442-7.257a59.035 59.035 0 0 0 38.944-64.594 59.02 59.02 0 0 0-42.46-47.994 59.03 59.03 0 0 0-63.866 22.444 98 98 0 0 0-32.213 9.357 84 84 0 1 1 125.775 95.592M41.963 74.275l20.593 2.53a59 59 0 0 1 2.658-11.678 84 84 0 0 0-23.25 9.148" clip-rule="evenodd"/><path fill="#24c8db" fill-rule="evenodd" d="M38.405 76.452a84 84 0 0 1 29.212-11.839A58.9 58.9 0 0 0 64 85q.001 3.216.337 6.344a59.02 59.02 0 0 0-34.155 31.412 59.03 59.03 0 0 0 9.609 63.356 59.027 59.027 0 0 0 92.188-4.729 98 98 0 0 0 32.226-9.421 83.99 83.99 0 0 1-55.298 55.26A83.995 83.995 0 0 1 .95 159.596a84 84 0 0 1 37.454-83.144m124.657 80.259-.324.186z" clip-rule="evenodd"/></svg>