<svg xmlns="http://www.w3.org/2000/svg" viewBox="0 0 508.67 96.36"><defs><style>.cls-1{fill:#151515}</style></defs><g id="图层_2" data-name="图层 2"><g id="Discord_Logos" data-name="Discord Logos"><g id="Discord_Logo_-_Large_-_White" data-name="Discord Logo - Large - White"><path d="M170.85 20.2h27.3q9.87 0 16.7 3.08a22.5 22.5 0 0 1 10.21 8.58 23.34 23.34 0 0 1 3.4 12.56A23.24 23.24 0 0 1 224.93 57a23.94 23.94 0 0 1-10.79 8.92q-7.24 3.3-17.95 3.29h-25.34Zm25.06 36.54q6.65 0 10.22-3.32a11.8 11.8 0 0 0 3.57-9.07 11.5 11.5 0 0 0-3.18-8.5q-3.2-3.18-9.63-3.19h-8.54v24.08Zm73.43 12.39a37 37 0 0 1-10.22-4.27V53.24a27.8 27.8 0 0 0 9.2 4.38 39.3 39.3 0 0 0 11.17 1.71 8.7 8.7 0 0 0 3.82-.66c.86-.44 1.29-1 1.29-1.58a2.37 2.37 0 0 0-.7-1.75 6.15 6.15 0 0 0-2.73-1.19l-8.4-1.89q-7.22-1.68-10.25-4.65a10.4 10.4 0 0 1-3-7.81 10.37 10.37 0 0 1 2.66-7.07 17.13 17.13 0 0 1 7.56-4.65 36 36 0 0 1 11.48-1.65A43.3 43.3 0 0 1 292 27.69a30.3 30.3 0 0 1 8.12 3.22v11a30 30 0 0 0-7.6-3.11 34 34 0 0 0-8.85-1.16q-6.58 0-6.58 2.24a1.69 1.69 0 0 0 1 1.58 16 16 0 0 0 3.74 1.08l7 1.26Q295.65 45 299 48t3.36 8.78a11.61 11.61 0 0 1-5.57 10.12q-5.53 3.71-15.79 3.7a46.4 46.4 0 0 1-11.66-1.47m49.56-1.47a21 21 0 0 1-9.07-8 21.6 21.6 0 0 1-3-11.34 20.6 20.6 0 0 1 3.15-11.27 21.16 21.16 0 0 1 9.24-7.8 34.25 34.25 0 0 1 14.56-2.84q10.5 0 17.43 4.41v12.83a21.8 21.8 0 0 0-5.7-2.73 22.7 22.7 0 0 0-7-1.05q-6.51 0-10.19 2.38a7.15 7.15 0 0 0-.1 12.43q3.57 2.41 10.36 2.41a24 24 0 0 0 6.9-1 25.7 25.7 0 0 0 5.84-2.49V66a34 34 0 0 1-17.85 4.62 32.9 32.9 0 0 1-14.57-2.96m49.74 0a21.77 21.77 0 0 1-9.25-8 21.14 21.14 0 0 1-3.18-11.41A20.27 20.27 0 0 1 359.39 37a21.4 21.4 0 0 1 9.21-7.74 38.17 38.17 0 0 1 28.7 0 21.25 21.25 0 0 1 9.17 7.7 20.4 20.4 0 0 1 3.15 11.27 21.3 21.3 0 0 1-3.15 11.41 21.5 21.5 0 0 1-9.2 8 36.32 36.32 0 0 1-28.63 0Zm21.27-12.42a9.12 9.12 0 0 0 2.56-6.76 8.87 8.87 0 0 0-2.56-6.68 9.53 9.53 0 0 0-7-2.49 9.67 9.67 0 0 0-7 2.49 8.9 8.9 0 0 0-2.55 6.68 9.15 9.15 0 0 0 2.55 6.76 9.53 9.53 0 0 0 7 2.55 9.4 9.4 0 0 0 7-2.55M451.69 29v15.14a12.47 12.47 0 0 0-6.93-1.75c-3.73 0-6.61 1.14-8.61 3.4s-3 5.77-3 10.53V69.2H416V28.25h16.8v13q1.4-7.14 4.52-10.53a10.38 10.38 0 0 1 8-3.4 11.7 11.7 0 0 1 6.37 1.68m56.98-10.2v50.4h-17.15V60a16.23 16.23 0 0 1-6.62 7.88A20.8 20.8 0 0 1 474 70.6a18.1 18.1 0 0 1-10.15-2.83 18.6 18.6 0 0 1-6.74-7.77 25.75 25.75 0 0 1-2.34-11.17 24.9 24.9 0 0 1 2.48-11.55 19.43 19.43 0 0 1 7.21-8 19.85 19.85 0 0 1 10.61-2.87q12.24 0 16.45 10.64V18.8ZM489 55a8.83 8.83 0 0 0 2.63-6.62A8.42 8.42 0 0 0 489 42a11 11 0 0 0-13.89 0 8.55 8.55 0 0 0-2.59 6.47 8.67 8.67 0 0 0 2.62 6.53 9.42 9.42 0 0 0 6.86 2.51 9.56 9.56 0 0 0 7-2.51M107.7 8.07A105.2 105.2 0 0 0 81.47 0a72 72 0 0 0-3.36 6.83 97.7 97.7 0 0 0-29.11 0A72 72 0 0 0 45.64 0a106 106 0 0 0-26.25 8.09C2.79 32.65-1.71 56.6.54 80.21a105.7 105.7 0 0 0 32.17 16.15 77.7 77.7 0 0 0 6.89-11.11 68.4 68.4 0 0 1-10.85-5.18c.91-.66 1.8-1.34 2.66-2a75.57 75.57 0 0 0 64.32 0c.87.71 1.76 1.39 2.66 2a68.7 68.7 0 0 1-10.87 5.19 77 77 0 0 0 6.89 11.1 105.3 105.3 0 0 0 32.19-16.14c2.64-27.38-4.51-51.11-18.9-72.15M42.45 65.69C36.18 65.69 31 60 31 53s5-12.74 11.43-12.74S54 46 53.89 53s-5.05 12.69-11.44 12.69m42.24 0C78.41 65.69 73.25 60 73.25 53s5-12.74 11.44-12.74S96.23 46 96.12 53s-5.04 12.69-11.43 12.69" class="cls-1"/><ellipse cx="242.92" cy="24.93" class="cls-1" rx="8.55" ry="7.68"/><path d="M234.36 37.9a22.08 22.08 0 0 0 17.11 0v31.52h-17.11Z" class="cls-1"/></g></g></g></svg>