<svg xmlns="http://www.w3.org/2000/svg" width="1280" height="258" fill="none"><g fill="#151515" clip-path="url(#a)"><path d="M469.792 8.155h48.514l82.492 149.221L683.289 8.155h47.464v245.198h-39.582V65.427l-72.333 130.13h-37.131l-72.333-130.13v187.926h-39.582zm388.635 249.578q-27.5 0-48.339-12.173-20.843-12.173-32.489-33.714-11.649-21.544-11.646-49.39 0-28.197 11.384-49.916 11.384-21.714 31.613-33.978 20.229-12.257 46.5-12.26 26.094 0 44.924 12.347 18.824 12.35 28.985 34.591 10.156 22.244 10.158 52.193v10.857H805.184q3.679 22.422 18.128 35.291 14.45 12.875 36.516 12.873 17.689 0 30.475-5.254 12.783-5.254 23.995-15.937l21.016 25.745q-31.353 28.727-76.887 28.725m28.899-145.457Q874.888 99.58 854.75 99.578q-19.618 0-32.839 12.962-13.227 12.961-16.727 34.853h96.328q-1.752-22.418-14.186-35.117m100.184-9.193h-36.43V70.681h36.43V17.09h38.18v53.59h55.34v32.402h-55.34v82.141c0 13.66 2.34 23.409 7.01 29.247 4.66 5.841 12.66 8.76 23.99 8.757 5.02 0 9.28-.204 12.79-.612q5.25-.61 11.55-1.665v32.051a108 108 0 0 1-14.62 3.154c-5.65.832-11.36 1.241-17.08 1.225-41.21 0-61.822-22.534-61.82-67.603zM1280 253.353h-37.48v-25.57c-6.66 9.575-15.12 16.96-25.4 22.155-10.27 5.193-21.95 7.792-35.02 7.795-16.12 0-30.39-4.117-42.83-12.349-12.43-8.232-22.21-19.557-29.33-33.977s-10.69-30.912-10.69-49.477q0-28.022 10.86-49.566c7.24-14.36 17.25-25.627 30.04-33.802 12.79-8.171 27.47-12.258 44.05-12.26 12.49 0 23.7 2.423 33.62 7.27a66.4 66.4 0 0 1 24.7 20.578V70.682H1280zm-38.18-118.745q-6.135-15.588-19.35-24.609-13.23-9.018-30.57-9.018c-16.34 0-29.36 5.487-39.05 16.462-9.69 10.976-14.54 25.805-14.54 44.487q0 28.2 14.01 44.662 14.01 16.463 38.01 16.462c11.79 0 22.3-3.036 31.52-9.108 9.23-6.068 15.88-14.242 19.97-24.519zM41.938 170.073c0 14.825 3.254 26.207 7.507 33.093 5.576 9.02 13.893 12.841 22.373 12.841 10.936 0 20.942-2.714 40.222-29.381 15.447-21.374 33.648-51.375 45.894-70.184l20.739-31.865c14.407-22.13 31.082-46.73 50.201-63.406C244.483 7.561 261.32 0 278.265 0c28.449 0 55.548 16.486 76.287 47.406 22.697 33.863 33.715 76.516 33.715 120.533 0 26.167-5.158 45.394-13.935 60.584-8.479 14.69-25.005 29.367-52.806 29.367v-41.883c23.804 0 29.745-21.874 29.745-46.907 0-35.672-8.317-75.26-26.64-103.547-13.002-20.064-29.853-32.324-48.391-32.324-20.051 0-36.186 15.122-54.319 42.086-9.641 14.326-19.538 31.784-30.65 51.483l-12.233 21.671c-24.574 43.572-30.798 53.496-43.085 69.874-21.536 28.678-39.926 39.547-64.135 39.547-28.72 0-46.88-12.435-58.127-31.176C4.51 211.443 0 191.406 0 168.574z"/><path d="M33.067 50.363C52.294 20.726 80.04 0 111.865 0c18.43 0 36.753 5.455 55.885 21.077 20.929 17.08 43.234 45.205 71.062 91.558l9.978 16.634c24.088 40.129 37.792 60.773 45.813 70.508 10.315 12.503 17.539 16.23 26.923 16.23 23.804 0 29.745-21.874 29.745-46.907l36.996-1.161c0 26.167-5.158 45.394-13.935 60.584-8.479 14.69-25.005 29.367-52.806 29.367-17.283 0-32.594-3.753-49.526-19.726-13.016-12.26-28.233-34.039-39.939-53.617l-34.822-58.167c-17.472-29.192-33.499-50.957-42.775-60.814-9.978-10.599-22.805-23.399-43.274-23.399-16.567 0-30.636 11.625-42.41 29.408z"/><path d="M111.19 42.167c-16.567 0-30.636 11.625-42.41 29.408-16.648 25.127-26.842 62.555-26.842 98.498 0 14.825 3.254 26.207 7.507 33.093L13.69 226.714C4.51 211.443 0 191.406 0 168.574 0 127.055 11.396 83.78 33.067 50.363 52.294 20.726 80.04 0 111.865 0z"/></g><defs><clipPath id="a"><path fill="#fff" d="M0 0h1280v257.89H0z"/></clipPath></defs></svg>